# xmcd
# 
# Track frame offsets:
#     150
#     12750
#     26432
#     39497
#     50667
#     63555
#     74832
#     86435
#     97747
#     107800
#     118525
#     132600
#     147350
#     160417
#     169957
#     182997
#     195647
#     208565
#     229242
#     243957
# 
# Disc length: 3481
# 
# Revision: 6
# Processed by: cddbd v1.5.2PL0 Copyright (c) Steve Scherf et al.
# Submitted via: fre:ac v1.0.31
# 
DISCID=220d9714
DTITLE=Bo Diddley - His Best
DYEAR=1997
DGENRE=Blues
TTITLE0=Bo Diddley
TTITLE1=I’m A Man
TTITLE2=You Don’t Love Me (You Don’t Care)
TTITLE3=Diddley Daddy
TTITLE4=Pretty Thing
TTITLE5=Bring It To Jerome
TTITLE6=I’m Looking For A Woman
TTITLE7=Who Do You Love?
TTITLE8=Hey Bo Diddley
TTITLE9=Mona (aka I Need You Baby)
TTITLE10=Before You Accuse Me
TTITLE11=Say Man
TTITLE12=Dearest Darling
TTITLE13=Crackin’ Up
TTITLE14=The Story Of Bo Diddley
TTITLE15=Road Runner
TTITLE16=Pills
TTITLE17=I Can Tell
TTITLE18=You Can’t Judge A Book By Its Cover
TTITLE19=Ooh Baby
EXTD=
EXTT0=
EXTT1=
EXTT2=
EXTT3=
EXTT4=
EXTT5=
EXTT6=
EXTT7=
EXTT8=
EXTT9=
EXTT10=
EXTT11=
EXTT12=
EXTT13=
EXTT14=
EXTT15=
EXTT16=
EXTT17=
EXTT18=
EXTT19=
PLAYORDER=
